<?xml version="1.0" encoding="UTF-8"?>
<svg id="SVGRoot" width="1e3px" height="1e3px" version="1.1" viewBox="0 0 1e3 1e3" xmlns="http://www.w3.org/2000/svg" xmlns:osb="http://www.openswatchbook.org/uri/2009/osb" xmlns:xlink="http://www.w3.org/1999/xlink">
 <defs>
  <linearGradient id="linearGradient4658" x1="900.85" x2="427.09" y1="1e3" y2="890.95" gradientUnits="userSpaceOnUse">
   <stop stop-opacity=".47181" offset="0"/>
   <stop stop-opacity="0" offset="1"/>
  </linearGradient>
  <linearGradient id="linearGradient4658-0" x1="52" x2="294" y1="174" y2="252" gradientTransform="translate(-5e-7 2.489e-5)" gradientUnits="userSpaceOnUse">
   <stop stop-opacity=".41667" offset="0"/>
   <stop stop-opacity="0" offset="1"/>
  </linearGradient>
 </defs>
 <g stroke-width="0">
  <path d="m628.51 803.07c-83.702-36.17-169.32-37.161-257.02 0 0.0722 19.114 0.28312 61.956 1.293 129.6 1.0446 69.964 65.73 67.318 65.73 67.318l61.488 0.52927 61.488-0.52927s64.686 2.6461 65.73-67.318c1.0099-67.641 1.2208-110.48 1.293-129.6z" fill="#ffeb3b"/>
  <path d="m635.65 719.12c-82.686-67.327-179.6-88.02-286.27-76.744 17.851 68.429 22.016 143.25 22.016 143.25s0.0706 12.343 0.0898 17.449h257.02c0.0193-5.1065 0.0898-17.449 0.0898-17.449s1.6851-28.73 7.0469-66.506z" fill="#f44336"/>
  <path d="m668.51 589.56c-104.88-92.772-238.29-131.59-404.49-108.38 23.081 33.606 47.733 66.001 65.402 103.54 8.083 17.171 14.613 37.14 19.965 57.656l286.27 76.744c5.723-40.32 15.74-90.895 32.859-129.56z" fill="#9c27b0"/>
  <path d="m745.72 466.79c-166.39-140.54-348.36-188.26-545.41-146.14 0.72858 8.8659 1.7712 17.691 3.1621 26.434 8.5037 53.452 33.423 94.62 60.537 134.1l404.49 108.38c0.705-1.5922 1.3447-3.292 2.0742-4.8418 20.179-42.868 49.515-78.988 75.143-117.93z" fill="#3f51b5"/>
  <path d="m800.02 313.31c-173.31-131.04-365.45-175.52-572.08-153.29-23.628 49.401-32.131 105.79-27.625 160.62l545.41 146.14c23.173-35.21 43.322-72.719 50.797-119.71 1.7732-11.146 2.8098-22.438 3.502-33.768z" fill="#03a9f4"/>
  <path d="m763.12 142.71c-129.15-74.18-262.61-122.49-406.36-109.02-17.635 8.6627-35.327 19.423-52.08 33.117-32.808 26.817-52.352 48.175-69.135 78.148-2.7531 4.9169-5.1759 9.9966-7.6035 15.072l572.08 153.29c3.5533-58.162-7.2124-117.72-35.57-168.36-0.43329-0.77384-0.89292-1.4815-1.3301-2.2441z" fill="#009688"/>
  <path d="m499.97 0.0058594c-9.878-0.093923-76.096 0.71333-143.21 33.68l406.36 109.02c-16.495-28.775-35.843-49.779-67.805-75.904-80.647-65.921-183.14-66.92-195.32-66.797-0.0209-2.1053e-4 -0.0123 2.095e-4 -0.0332 0z" fill="#8bc34a"/>
 </g>
 <g stroke-width="0">
  <path d="m497.47 0.0058594c-15.66 0.13202-77.792 2.7737-140.71 33.68-17.635 8.6627-35.327 19.423-52.08 33.117-32.808 26.817-52.352 48.175-69.135 78.148-2.7531 4.9169-5.1759 9.9966-7.6035 15.072-23.628 49.401-32.131 105.79-27.625 160.62 0.72858 8.8659 1.7712 17.691 3.1621 26.434 8.5037 53.452 33.423 94.62 60.537 134.1 23.081 33.606 47.733 66.001 65.402 103.54 8.083 17.171 14.613 37.14 19.965 57.656 17.851 68.429 22.016 143.25 22.016 143.25s0.0706 12.343 0.0898 17.449c0.0722 19.114 0.28312 61.956 1.293 129.6 1.0446 69.964 65.73 67.318 65.73 67.318l61.488 0.52927 61.488-0.52927s64.686 2.6461 65.73-67.318c1.0099-67.641 1.2208-110.48 1.293-129.6 0.0193-5.1065 0.0898-17.449 0.0898-17.449s1.6851-28.73 7.0469-66.506c5.723-40.32 15.74-90.895 32.859-129.56 0.705-1.5922 1.3447-3.292 2.0742-4.8418 20.179-42.868 49.515-78.988 75.143-117.93 23.173-35.21 43.322-72.719 50.797-119.71 1.7732-11.146 2.8098-22.438 3.502-33.768 3.5533-58.162-7.2124-117.72-35.57-168.36-0.43329-0.77384-0.89292-1.4815-1.3301-2.2441-16.495-28.775-35.843-49.779-67.805-75.904-80.647-65.921-183.14-66.92-195.32-66.797-0.0209-2.1053e-4 -0.0123 2.095e-4 -0.0332 0-0.61738-0.0058702-1.4541-0.0088016-2.498 0z" fill="url(#linearGradient4658)"/>
  <path d="m497.47 0.0058849c-15.66 0.13202-77.792 2.7737-140.71 33.68-17.635 8.6627-35.327 19.423-52.08 33.117-32.808 26.817-52.352 48.175-69.135 78.148-2.7531 4.9169-5.1759 9.9966-7.6035 15.072-23.628 49.401-32.131 105.79-27.625 160.62 0.72858 8.8659 1.7712 17.691 3.1621 26.434 8.5037 53.452 33.423 94.62 60.537 134.1 23.081 33.606 47.733 66.001 65.402 103.54 8.083 17.171 14.613 37.14 19.965 57.656 17.851 68.429 22.016 143.25 22.016 143.25s0.0706 12.343 0.0898 17.449c0.0722 19.114 0.28312 61.956 1.293 129.6 1.0446 69.964 65.73 67.318 65.73 67.318l61.488 0.52925 61.488-0.52925s64.686 2.646 65.73-67.318c1.0099-67.641 1.2208-110.48 1.293-129.6 0.0193-5.1065 0.0898-17.449 0.0898-17.449s1.6851-28.73 7.0469-66.506c5.723-40.32 15.74-90.895 32.859-129.56 0.705-1.5922 1.3447-3.292 2.0742-4.8418 20.179-42.868 49.515-78.988 75.143-117.93 23.173-35.21 43.322-72.719 50.797-119.71 1.7732-11.146 2.8098-22.438 3.502-33.768 3.5533-58.162-7.2124-117.72-35.57-168.36-0.43329-0.77384-0.89292-1.4815-1.3301-2.2441-16.495-28.775-35.843-49.779-67.805-75.904-80.647-65.921-183.14-66.92-195.32-66.797-0.0209-2.1e-4 -0.0123 2.1e-4 -0.0332 0-0.61738-6e-3 -1.4541-9e-3 -2.498 0z" fill="url(#linearGradient4658-0)"/>
 </g>
</svg>
